<?xml version="1.0" standalone="no"?>
<!DOCTYPE svg PUBLIC "-//W3C//DTD SVG 20010904//EN"
 "http://www.w3.org/TR/2001/REC-SVG-20010904/DTD/svg10.dtd">
<svg version="1.0" xmlns="http://www.w3.org/2000/svg"
 width="512.000000pt" height="512.000000pt" viewBox="0 0 512.000000 512.000000"
 preserveAspectRatio="xMidYMid meet">

<g transform="translate(0.000000,512.000000) scale(0.100000,-0.100000)"
fill="#000000" stroke="none">
<path d="M1174 4125 c-96 -21 -203 -70 -281 -130 l-73 -55 0 80 0 80 -245 0
-245 0 0 -1080 0 -1080 245 0 244 0 3 713 3 712 23 58 c33 80 117 169 196 206
82 40 208 57 296 41 113 -21 185 -69 230 -157 54 -105 53 -94 57 -860 l4 -713
240 0 239 0 0 738 c0 793 -2 822 -53 971 -69 198 -221 365 -396 436 -129 53
-347 71 -487 40z"/>
<path d="M3540 4125 c-144 -32 -263 -90 -375 -184 l-60 -50 -3 105 -3 104
-239 0 -240 0 0 -1565 0 -1565 240 0 240 0 0 590 0 590 64 -52 c94 -77 164
-117 279 -156 94 -33 114 -36 245 -40 159 -5 252 6 377 45 270 85 486 271 615
532 113 226 148 543 91 816 -70 334 -271 597 -565 740 -145 71 -260 97 -446
101 -110 3 -174 -1 -220 -11z m340 -477 c81 -25 121 -46 187 -95 104 -78 178
-193 214 -332 28 -106 27 -296 0 -404 -69 -268 -271 -432 -559 -454 -153 -11
-323 58 -438 179 -127 135 -175 266 -175 478 0 212 48 343 174 476 91 96 202
155 331 174 71 11 189 1 266 -22z"/>
</g>
</svg>
